<?xml version="1.0" encoding="UTF-8"?>
<svg width="400" height="300" viewBox="0 0 400 300" xmlns="http://www.w3.org/2000/svg">
  <style>
    .logo-text { fill: #FFFFFF; }
    .knot { fill: #FFFFFF; }
  </style>
  <g transform="translate(50, 20)">
    <!-- Infinity knot design -->
    <path class="knot" d="
      M 150,30
      C 130,30 120,45 120,60
      C 120,75 130,90 150,90
      C 170,90 180,75 180,60
      C 180,45 170,30 150,30
      M 190,30
      C 210,30 220,45 220,60
      C 220,75 210,90 190,90
      C 170,90 160,75 160,60
      C 160,45 170,30 190,30
      M 110,30
      C 90,30 80,45 80,60
      C 80,75 90,90 110,90
      C 130,90 140,75 140,60
      C 140,45 130,30 110,30
    "/>
    
    <!-- Main text -->
    <text class="logo-text" x="0" y="150" font-family="Arial" font-size="72" font-weight="300">
      aberdeen
    </text>
    
    <!-- Web Design text -->
    <text class="logo-text" x="30" y="210" font-family="Arial" font-size="48" font-weight="300">
      web design
    </text>
  </g>
</svg>